<mxfile host="app.diagrams.net" modified="2023-10-15T16:04:01.739Z" agent="Mozilla/5.0 (Windows NT 10.0; Win64; x64) AppleWebKit/537.36 (KHTML, like Gecko) Chrome/117.0.0.0 Safari/537.36 Edg/117.0.2045.60" etag="38qS2Me7rFiYbmyxT9ff" version="22.0.4" type="device">
  <diagram id="C5RBs43oDa-KdzZeNtuy" name="Page-1">
    <mxGraphModel dx="1355" dy="661" grid="1" gridSize="10" guides="1" tooltips="1" connect="1" arrows="1" fold="1" page="1" pageScale="1" pageWidth="827" pageHeight="1169" math="0" shadow="0">
      <root>
        <mxCell id="WIyWlLk6GJQsqaUBKTNV-0" />
        <mxCell id="WIyWlLk6GJQsqaUBKTNV-1" parent="WIyWlLk6GJQsqaUBKTNV-0" />
        <mxCell id="YHgmIHGTb1LdJqGyHwob-0" value="player" style="shape=umlActor;verticalLabelPosition=bottom;verticalAlign=top;html=1;outlineConnect=0;" vertex="1" parent="WIyWlLk6GJQsqaUBKTNV-1">
          <mxGeometry x="180" y="10" width="30" height="60" as="geometry" />
        </mxCell>
        <mxCell id="YHgmIHGTb1LdJqGyHwob-1" value="" style="endArrow=none;html=1;rounded=0;entryX=0.5;entryY=0;entryDx=0;entryDy=0;" edge="1" parent="WIyWlLk6GJQsqaUBKTNV-1" source="YHgmIHGTb1LdJqGyHwob-0" target="YHgmIHGTb1LdJqGyHwob-2">
          <mxGeometry width="50" height="50" relative="1" as="geometry">
            <mxPoint x="194.58" y="100" as="sourcePoint" />
            <mxPoint x="194.58" y="170" as="targetPoint" />
          </mxGeometry>
        </mxCell>
        <mxCell id="YHgmIHGTb1LdJqGyHwob-2" value="pull Item" style="ellipse;whiteSpace=wrap;html=1;" vertex="1" parent="WIyWlLk6GJQsqaUBKTNV-1">
          <mxGeometry x="90" y="140" width="120" height="80" as="geometry" />
        </mxCell>
        <mxCell id="YHgmIHGTb1LdJqGyHwob-3" value="exclusive banner" style="ellipse;whiteSpace=wrap;html=1;" vertex="1" parent="WIyWlLk6GJQsqaUBKTNV-1">
          <mxGeometry x="20" y="400" width="120" height="80" as="geometry" />
        </mxCell>
        <mxCell id="YHgmIHGTb1LdJqGyHwob-4" value="permanent banner" style="ellipse;whiteSpace=wrap;html=1;" vertex="1" parent="WIyWlLk6GJQsqaUBKTNV-1">
          <mxGeometry x="160" y="410" width="120" height="80" as="geometry" />
        </mxCell>
        <mxCell id="YHgmIHGTb1LdJqGyHwob-6" value="pull counter increased" style="ellipse;whiteSpace=wrap;html=1;" vertex="1" parent="WIyWlLk6GJQsqaUBKTNV-1">
          <mxGeometry x="80" y="280" width="120" height="80" as="geometry" />
        </mxCell>
        <mxCell id="YHgmIHGTb1LdJqGyHwob-7" value="history of pulls" style="ellipse;whiteSpace=wrap;html=1;" vertex="1" parent="WIyWlLk6GJQsqaUBKTNV-1">
          <mxGeometry x="80" y="540" width="120" height="80" as="geometry" />
        </mxCell>
        <mxCell id="YHgmIHGTb1LdJqGyHwob-8" value="Admin" style="shape=umlActor;verticalLabelPosition=bottom;verticalAlign=top;html=1;outlineConnect=0;" vertex="1" parent="WIyWlLk6GJQsqaUBKTNV-1">
          <mxGeometry x="560" y="10" width="30" height="60" as="geometry" />
        </mxCell>
        <mxCell id="YHgmIHGTb1LdJqGyHwob-9" value="update permanent banner" style="ellipse;whiteSpace=wrap;html=1;" vertex="1" parent="WIyWlLk6GJQsqaUBKTNV-1">
          <mxGeometry x="360" y="80" width="120" height="80" as="geometry" />
        </mxCell>
        <mxCell id="YHgmIHGTb1LdJqGyHwob-10" value="add,update,delete exclusive banner" style="ellipse;whiteSpace=wrap;html=1;" vertex="1" parent="WIyWlLk6GJQsqaUBKTNV-1">
          <mxGeometry x="450" y="190" width="120" height="80" as="geometry" />
        </mxCell>
        <mxCell id="YHgmIHGTb1LdJqGyHwob-11" value="manage user in the system" style="ellipse;whiteSpace=wrap;html=1;" vertex="1" parent="WIyWlLk6GJQsqaUBKTNV-1">
          <mxGeometry x="600" y="190" width="120" height="80" as="geometry" />
        </mxCell>
        <mxCell id="YHgmIHGTb1LdJqGyHwob-12" value="update system versionn" style="ellipse;whiteSpace=wrap;html=1;" vertex="1" parent="WIyWlLk6GJQsqaUBKTNV-1">
          <mxGeometry x="690" y="80" width="120" height="80" as="geometry" />
        </mxCell>
        <mxCell id="YHgmIHGTb1LdJqGyHwob-13" value="" style="endArrow=none;html=1;rounded=0;" edge="1" parent="WIyWlLk6GJQsqaUBKTNV-1">
          <mxGeometry width="50" height="50" relative="1" as="geometry">
            <mxPoint x="485" y="110" as="sourcePoint" />
            <mxPoint x="550" y="70" as="targetPoint" />
          </mxGeometry>
        </mxCell>
        <mxCell id="YHgmIHGTb1LdJqGyHwob-14" value="" style="endArrow=none;html=1;rounded=0;" edge="1" parent="WIyWlLk6GJQsqaUBKTNV-1">
          <mxGeometry width="50" height="50" relative="1" as="geometry">
            <mxPoint x="520" y="190" as="sourcePoint" />
            <mxPoint x="560" y="90" as="targetPoint" />
          </mxGeometry>
        </mxCell>
        <mxCell id="YHgmIHGTb1LdJqGyHwob-15" value="" style="endArrow=none;html=1;rounded=0;" edge="1" parent="WIyWlLk6GJQsqaUBKTNV-1">
          <mxGeometry width="50" height="50" relative="1" as="geometry">
            <mxPoint x="640" y="190" as="sourcePoint" />
            <mxPoint x="590" y="100" as="targetPoint" />
          </mxGeometry>
        </mxCell>
        <mxCell id="YHgmIHGTb1LdJqGyHwob-16" value="" style="endArrow=none;html=1;rounded=0;" edge="1" parent="WIyWlLk6GJQsqaUBKTNV-1">
          <mxGeometry width="50" height="50" relative="1" as="geometry">
            <mxPoint x="690" y="110" as="sourcePoint" />
            <mxPoint x="600" y="80" as="targetPoint" />
          </mxGeometry>
        </mxCell>
        <mxCell id="YHgmIHGTb1LdJqGyHwob-17" value="base user" style="ellipse;whiteSpace=wrap;html=1;" vertex="1" parent="WIyWlLk6GJQsqaUBKTNV-1">
          <mxGeometry x="560" y="390" width="120" height="80" as="geometry" />
        </mxCell>
        <mxCell id="YHgmIHGTb1LdJqGyHwob-18" value="system" style="shape=umlActor;verticalLabelPosition=bottom;verticalAlign=top;html=1;outlineConnect=0;" vertex="1" parent="WIyWlLk6GJQsqaUBKTNV-1">
          <mxGeometry x="605" y="560" width="30" height="60" as="geometry" />
        </mxCell>
        <mxCell id="YHgmIHGTb1LdJqGyHwob-19" value="" style="endArrow=none;html=1;rounded=0;" edge="1" parent="WIyWlLk6GJQsqaUBKTNV-1" target="YHgmIHGTb1LdJqGyHwob-17">
          <mxGeometry width="50" height="50" relative="1" as="geometry">
            <mxPoint x="620" y="560" as="sourcePoint" />
            <mxPoint x="540" y="440" as="targetPoint" />
            <Array as="points">
              <mxPoint x="620" y="530" />
            </Array>
          </mxGeometry>
        </mxCell>
        <mxCell id="YHgmIHGTb1LdJqGyHwob-21" value="pity system" style="ellipse;whiteSpace=wrap;html=1;" vertex="1" parent="WIyWlLk6GJQsqaUBKTNV-1">
          <mxGeometry x="260" y="290" width="120" height="80" as="geometry" />
        </mxCell>
        <mxCell id="YHgmIHGTb1LdJqGyHwob-22" value="include" style="endArrow=open;endSize=12;dashed=1;html=1;rounded=0;exitX=0.194;exitY=0.864;exitDx=0;exitDy=0;exitPerimeter=0;entryX=0.5;entryY=0;entryDx=0;entryDy=0;" edge="1" parent="WIyWlLk6GJQsqaUBKTNV-1" source="YHgmIHGTb1LdJqGyHwob-6" target="YHgmIHGTb1LdJqGyHwob-3">
          <mxGeometry width="160" relative="1" as="geometry">
            <mxPoint x="40" y="390" as="sourcePoint" />
            <mxPoint x="200" y="390" as="targetPoint" />
          </mxGeometry>
        </mxCell>
        <mxCell id="YHgmIHGTb1LdJqGyHwob-23" value="include" style="endArrow=open;endSize=12;dashed=1;html=1;rounded=0;" edge="1" parent="WIyWlLk6GJQsqaUBKTNV-1" source="YHgmIHGTb1LdJqGyHwob-6" target="YHgmIHGTb1LdJqGyHwob-4">
          <mxGeometry width="160" relative="1" as="geometry">
            <mxPoint x="150" y="360" as="sourcePoint" />
            <mxPoint x="310" y="360" as="targetPoint" />
          </mxGeometry>
        </mxCell>
        <mxCell id="YHgmIHGTb1LdJqGyHwob-24" value="extend" style="endArrow=open;endSize=12;dashed=1;html=1;rounded=0;" edge="1" parent="WIyWlLk6GJQsqaUBKTNV-1" target="YHgmIHGTb1LdJqGyHwob-4">
          <mxGeometry width="160" relative="1" as="geometry">
            <mxPoint x="170" y="550" as="sourcePoint" />
            <mxPoint x="330" y="550" as="targetPoint" />
          </mxGeometry>
        </mxCell>
        <mxCell id="YHgmIHGTb1LdJqGyHwob-25" value="extend" style="endArrow=open;endSize=12;dashed=1;html=1;rounded=0;entryX=0.549;entryY=1.019;entryDx=0;entryDy=0;entryPerimeter=0;" edge="1" parent="WIyWlLk6GJQsqaUBKTNV-1" target="YHgmIHGTb1LdJqGyHwob-3">
          <mxGeometry width="160" relative="1" as="geometry">
            <mxPoint x="100" y="550" as="sourcePoint" />
            <mxPoint x="260" y="550" as="targetPoint" />
          </mxGeometry>
        </mxCell>
        <mxCell id="YHgmIHGTb1LdJqGyHwob-26" value="include" style="endArrow=open;endSize=12;dashed=1;html=1;rounded=0;exitX=0.389;exitY=0.977;exitDx=0;exitDy=0;exitPerimeter=0;" edge="1" parent="WIyWlLk6GJQsqaUBKTNV-1" source="YHgmIHGTb1LdJqGyHwob-2" target="YHgmIHGTb1LdJqGyHwob-6">
          <mxGeometry width="160" relative="1" as="geometry">
            <mxPoint x="140" y="240" as="sourcePoint" />
            <mxPoint x="300" y="240" as="targetPoint" />
          </mxGeometry>
        </mxCell>
        <mxCell id="YHgmIHGTb1LdJqGyHwob-28" value="" style="endArrow=none;html=1;rounded=0;exitX=0.431;exitY=0.074;exitDx=0;exitDy=0;exitPerimeter=0;" edge="1" parent="WIyWlLk6GJQsqaUBKTNV-1" source="YHgmIHGTb1LdJqGyHwob-21" target="YHgmIHGTb1LdJqGyHwob-0">
          <mxGeometry width="50" height="50" relative="1" as="geometry">
            <mxPoint x="230" y="230" as="sourcePoint" />
            <mxPoint x="280" y="180" as="targetPoint" />
          </mxGeometry>
        </mxCell>
      </root>
    </mxGraphModel>
  </diagram>
</mxfile>
